<?xml version="1.0" encoding="UTF-8"?>
<!DOCTYPE svg PUBLIC "-//W3C//DTD SVG 1.1//EN" "http://www.w3.org/Graphics/SVG/1.1/DTD/svg11.dtd">
<svg xmlns="http://www.w3.org/2000/svg" version="1.1" width="100px" height="100px" style="shape-rendering:geometricPrecision; text-rendering:geometricPrecision; image-rendering:optimizeQuality; fill-rule:evenodd; clip-rule:evenodd" xmlns:xlink="http://www.w3.org/1999/xlink">
<g><path style="opacity:0.922" fill="#000000" d="M -0.5,13.5 C 32.8333,13.5 66.1667,13.5 99.5,13.5C 99.5,37.5 99.5,61.5 99.5,85.5C 66.1667,85.5 32.8333,85.5 -0.5,85.5C -0.5,61.5 -0.5,37.5 -0.5,13.5 Z M 3.5,17.5 C 34.1667,17.5 64.8333,17.5 95.5,17.5C 95.7852,19.288 95.4519,20.9547 94.5,22.5C 79.7861,34.5487 64.7861,46.2154 49.5,57.5C 34.2139,46.2154 19.2139,34.5487 4.5,22.5C 3.54811,20.9547 3.21478,19.288 3.5,17.5 Z M 3.5,28.5 C 18.2718,40.9429 33.6052,52.6096 49.5,63.5C 65.354,52.8234 80.5207,41.1568 95,28.5C 95.4999,46.1635 95.6666,63.8302 95.5,81.5C 64.8333,81.5 34.1667,81.5 3.5,81.5C 3.5,63.8333 3.5,46.1667 3.5,28.5 Z"/></g>
</svg>
